# xmcd
#
# Track frame offsets:
#	150
#	18099
#	42918
#	63984
#	84125
#	104473
#	122322
#	142002
#	165270
#	192117
#	214643
#	235942
#
# Disc length: 3470 seconds
#
# Revision: 0
# Processed by: cddbd v1.4PL0 Copyright (c) Steve Scherf et al.
# Submitted via: audiograbber 1.80
#
DISCID=8d0d8c0c
DTITLE=casa nostra - giramondo
DYEAR=1900
DGENRE=
TTITLE0=Sempre piu su
TTITLE1=Come sei bella
TTITLE2=Ricordi
TTITLE3=Fiori che
TTITLE4=Mare di guai
TTITLE5=Nostalgia
TTITLE6=Sei andata via
TTITLE7=Gente senza volto
TTITLE8=Il groove
TTITLE9=Travels
TTITLE10=Un angelo
TTITLE11=Giramondo
EXTD=hahaha contry
EXTT0=
EXTT1=
EXTT2=
EXTT3=
EXTT4=
EXTT5=
EXTT6=
EXTT7=
EXTT8=
EXTT9=
EXTT10=
EXTT11=
PLAYORDER=
